<svg width="18" height="18" viewBox="0 0 18 18" fill="none" xmlns="http://www.w3.org/2000/svg">
<circle cx="9" cy="9" r="8.5" fill="#F6FEF3" stroke="#F9F8FF"/>
<path d="M7.64984 12.08C7.41518 12.08 7.18051 12.0613 6.94584 12.024C6.71118 11.992 6.48984 11.9413 6.28184 11.872C6.07384 11.7973 5.88718 11.7067 5.72184 11.6C5.62584 11.536 5.55918 11.4587 5.52184 11.368C5.48451 11.2773 5.47118 11.1893 5.48184 11.104C5.49784 11.0133 5.53251 10.936 5.58584 10.872C5.64451 10.8027 5.71651 10.76 5.80184 10.744C5.88718 10.728 5.98051 10.752 6.08184 10.816C6.31651 10.9547 6.56451 11.056 6.82584 11.12C7.08718 11.184 7.36184 11.216 7.64984 11.216C8.07118 11.216 8.37784 11.1467 8.56984 11.008C8.76184 10.864 8.85784 10.68 8.85784 10.456C8.85784 10.2693 8.78851 10.1227 8.64984 10.016C8.51651 9.90933 8.28451 9.82133 7.95384 9.752L7.07384 9.568C6.56718 9.46133 6.18851 9.28267 5.93784 9.032C5.69251 8.776 5.56984 8.44 5.56984 8.024C5.56984 7.76267 5.62318 7.52533 5.72984 7.312C5.83651 7.09867 5.98584 6.91467 6.17784 6.76C6.37518 6.60533 6.60718 6.488 6.87384 6.408C7.14584 6.32267 7.44451 6.28 7.76984 6.28C8.08984 6.28 8.39384 6.32 8.68184 6.4C8.96984 6.48 9.22851 6.59733 9.45784 6.752C9.54318 6.81067 9.59918 6.88267 9.62584 6.968C9.65784 7.05333 9.66584 7.13867 9.64984 7.224C9.63384 7.304 9.59651 7.37333 9.53784 7.432C9.47918 7.49067 9.40451 7.52533 9.31384 7.536C9.22851 7.54667 9.12984 7.52 9.01784 7.456C8.82051 7.344 8.62051 7.264 8.41784 7.216C8.21518 7.168 7.99651 7.144 7.76184 7.144C7.51651 7.144 7.30584 7.17867 7.12984 7.248C6.95384 7.31733 6.81784 7.416 6.72184 7.544C6.63118 7.66667 6.58584 7.81333 6.58584 7.984C6.58584 8.176 6.64984 8.33067 6.77784 8.448C6.90584 8.56 7.12451 8.648 7.43384 8.712L8.30584 8.896C8.83384 9.008 9.22584 9.184 9.48184 9.424C9.74318 9.664 9.87384 9.984 9.87384 10.384C9.87384 10.64 9.82051 10.872 9.71384 11.08C9.61251 11.288 9.46318 11.4667 9.26584 11.616C9.07384 11.7653 8.84184 11.88 8.56984 11.96C8.29784 12.04 7.99118 12.08 7.64984 12.08ZM12.4647 12.08C12.0541 12.08 11.6967 11.9973 11.3927 11.832C11.0887 11.6613 10.8541 11.4213 10.6887 11.112C10.5234 10.8027 10.4407 10.44 10.4407 10.024C10.4407 9.70933 10.4861 9.42933 10.5767 9.184C10.6727 8.93333 10.8087 8.72267 10.9847 8.552C11.1607 8.376 11.3741 8.24267 11.6247 8.152C11.8754 8.056 12.1554 8.008 12.4647 8.008C12.6407 8.008 12.8301 8.032 13.0327 8.08C13.2407 8.128 13.4354 8.208 13.6167 8.32C13.7021 8.37333 13.7581 8.43733 13.7847 8.512C13.8114 8.58667 13.8167 8.664 13.8007 8.744C13.7847 8.81867 13.7501 8.88533 13.6967 8.944C13.6487 8.99733 13.5874 9.032 13.5127 9.048C13.4381 9.05867 13.3554 9.04 13.2647 8.992C13.1474 8.92267 13.0274 8.872 12.9047 8.84C12.7821 8.80267 12.6647 8.784 12.5527 8.784C12.3767 8.784 12.2221 8.81333 12.0887 8.872C11.9554 8.92533 11.8407 9.00533 11.7447 9.112C11.6541 9.21333 11.5847 9.34133 11.5367 9.496C11.4887 9.65067 11.4647 9.82933 11.4647 10.032C11.4647 10.4267 11.5581 10.7387 11.7447 10.968C11.9367 11.192 12.2061 11.304 12.5527 11.304C12.6647 11.304 12.7794 11.288 12.8967 11.256C13.0194 11.224 13.1421 11.1733 13.2647 11.104C13.3554 11.056 13.4354 11.04 13.5047 11.056C13.5794 11.072 13.6407 11.1093 13.6887 11.168C13.7367 11.2213 13.7661 11.288 13.7767 11.368C13.7874 11.4427 13.7767 11.5173 13.7447 11.592C13.7181 11.6667 13.6647 11.728 13.5847 11.776C13.4087 11.8827 13.2221 11.96 13.0247 12.008C12.8274 12.056 12.6407 12.08 12.4647 12.08Z" fill="#48F113"/>
</svg>
